<svg version="1" xmlns="http://www.w3.org/2000/svg" width="666.667" height="666.667" viewBox="0 0 500.000000 500.000000"><path d="M396 25.1c-34.4 13.7-63.4 25.4-64.5 25.9-2.3 1.1-91.5 37-93 37.4-1.4.5-3.8 1.4-33.5 13.4l-26.5 10.7-.3 33-.2 33 31.7 12.5c17.5 6.8 32.5 12.7 33.3 13.1.8.4 13.2 5.3 27.5 10.9 14.3 5.6 26.9 10.6 28 11.1 1.1.5 19.8 7.9 41.5 16.5 58.2 23 80.4 31.7 100.8 39.8l18.2 7.3V144.8c0-79.6-.1-144.8-.2-144.8-.2.1-28.4 11.3-62.8 25.1zM108 93.7c-19.7 2.1-34 9.1-34 16.9 0 2 .4 2.3 3 2 2.2-.2 3 .1 3.1 1.3.1 2 .1 62.3 0 63.3-.1.5-.9.8-2 .8-1.3 0-2.5 1.5-3.9 4.8-2.1 4.8-2.1 4.8-.1 10.6 1.6 5 1.7 6.8.9 12.3-.6 3.5-1.3 8.5-1.6 11.1-.3 2.6-.7 6-1 7.7-.2 1.6-.6 4.8-.9 7-.3 2.2-.9 7.1-1.5 11-.5 3.8-1.2 9.2-1.5 12-.3 2.7-.7 6.1-1 7.5-.2 1.4-.7 4.7-1 7.5-.3 2.7-1 7.7-1.5 11-.9 6-2 14.8-2.5 19.5-.4 3.7-1.6 13.1-2 15-.2.9-.6 4.1-1 7.1s-.9 7-1.1 8.9c-.3 1.9-.7 5.3-.9 7.5-.3 2.2-.7 5.1-1 6.5-.2 1.4-.7 5-1 8-.4 3-.8 6.6-1 8-.5 3.3-.8 5.2-5.5 41.5-2.2 17.1-4.2 32.3-4.5 34-.2 1.6-.7 5.2-1 8-.4 2.7-.8 6.1-1 7.5-.2 1.4-.7 4.7-1 7.5-.3 2.7-.8 6.1-1 7.5-.3 1.4-.7 4.4-1 6.7-.3 2.4-.7 6.1-1 8.3-.4 3.3-.1 4.2 1.8 5.5 4.6 3 19.1 7.4 30.2 9.1 1.7.3 4.1.7 5.5 1 15.4 2.6 66.2 2.6 80-.1 1.3-.3 4.2-.7 6.5-1 7-1 18.8-4.5 24.5-7.3 6-2.9 5.9-2.6 4.6-12.7-.9-7.1-3.9-29.4-5.1-38-.2-1.7-.7-5.3-1-8-.3-2.8-1.5-11.3-2.5-19-1.1-7.7-2.2-16-2.4-18.5-.3-2.5-1-7.7-1.5-11.5-.6-3.9-1.3-9.3-1.6-12-.3-2.8-1-7.9-1.5-11.5-.5-3.6-1.4-10.3-2-15-.6-4.7-1.3-10.2-1.6-12.2-.3-2.1-.6-5-.8-6.5-.2-1.5-.9-6.4-1.5-10.8s-1.3-10-1.6-12.5c-.3-2.5-.8-6.1-1-8-.3-1.9-.7-5.3-1-7.5-.3-2.2-1.5-10.8-2.6-19-4-30.2-6-45.1-6.5-49.5-.2-2.5-.7-5.6-.9-7-1.6-9.6-1.6-11.8.5-17.2l2.1-5.6-2.3-4.6c-1.2-2.5-2.9-4.6-3.7-4.6-1.4 0-1.6-3.6-1.5-31.3.1-17.1.2-31.9.3-32.8.1-1.1.9-1.5 2.6-1.4 5.2.6 1.8-7.3-4.9-11.4-8.7-5.4-27.8-8.8-41.6-7.4z"/></svg>